<?xml version="1.0" encoding="utf-8"?>
<!-- Generator: Adobe Illustrator 22.0.1, SVG Export Plug-In . SVG Version: 6.00 Build 0)  -->
<svg version="1.1" id="Layer_1" xmlns="http://www.w3.org/2000/svg" xmlns:xlink="http://www.w3.org/1999/xlink" x="0px" y="0px"
	 viewBox="0 0 260 260" style="enable-background:new 0 0 260 260;" xml:space="preserve">
<style type="text/css">
	.st0{fill:#FFFFFF;}
</style>
<g>
	<ellipse class="st0" cx="201.5" cy="59.1" rx="14.9" ry="14.9"/>
	<path class="st0" d="M0-0.1V260h260.1V-0.1H0z M116.9,121.6l10,25.2c17.9,45.1,26.5,66.5,35,88h-35.5c-16.1-39.1-28.1-68.4-36.1-88
		h-0.1l-10-25.2C80.2,121.6,116.9,121.6,116.9,121.6z M151,146.7h-0.1L102.6,25.4h29l48.3,121.4c17.9,45.1,26.5,66.5,35,88H187
		C171,195.6,158.9,166.2,151,146.7z M155.6,25.3c0,0,48.4,121.4,48.3,121.4l31.2,75.7V121.6v100.8
		C221.4,189.4,162.6,42.7,155.6,25.3z M155.6,25.3l79.5-0.1v197.2l0,0 M25.1,25.5h22h31.5l29.6,74.3H25.1V25.5z M25.1,121.6h31.2
		l10,25.2c17.9,45.1,26.5,66.5,35,88H25.1V121.6z"/>
</g>
</svg>
