<?xml version="1.0" standalone="no"?>
<!DOCTYPE svg PUBLIC "-//W3C//DTD SVG 20010904//EN"
 "http://www.w3.org/TR/2001/REC-SVG-20010904/DTD/svg10.dtd">
<svg version="1.0" xmlns="http://www.w3.org/2000/svg"
 width="1168.000000pt" height="1168.000000pt" viewBox="0 0 1168.000000 1168.000000"
 preserveAspectRatio="xMidYMid meet">
<metadata>
Created by potrace 1.11, written by Peter Selinger 2001-2013
</metadata>
<g transform="translate(0.000000,1168.000000) scale(0.100000,-0.100000)"
fill="#000000" stroke="none">
<path d="M2909 11676 c-2 -3 -22 -7 -44 -10 -60 -9 -73 -12 -150 -36 -72 -23
-198 -81 -226 -106 -9 -8 -19 -11 -22 -7 -4 3 -7 1 -7 -5 0 -6 -14 -19 -30
-27 -33 -17 -220 -199 -220 -214 0 -5 -7 -16 -14 -24 -39 -38 -137 -250 -151
-323 -2 -10 -4 -19 -5 -19 -2 0 -7 -26 -17 -85 -11 -62 -10 -9913 1 -9975 4
-27 14 -68 22 -90 7 -22 14 -46 14 -53 0 -17 73 -176 82 -180 5 -2 8 -8 8 -14
0 -22 96 -146 166 -214 66 -65 216 -174 238 -173 5 0 12 -3 15 -8 14 -20 183
-79 286 -99 48 -9 296 -14 310 -6 5 3 21 7 35 7 68 4 319 93 328 117 2 4 8 8
13 8 21 0 136 88 209 160 71 70 154 181 179 240 6 14 15 32 21 40 25 40 68
171 86 265 11 54 11 9928 1 9985 -13 68 -34 146 -47 169 -6 12 -8 21 -6 21 10
0 -60 135 -105 205 -64 98 -252 285 -287 285 -5 0 -17 9 -27 20 -10 11 -20 18
-23 15 -3 -3 -12 1 -21 8 -17 14 -123 61 -163 72 -5 2 -9 3 -10 5 -2 1 -10 3
-18 5 -8 3 -42 12 -75 20 -53 14 -336 31 -346 21z"/>
<path d="M5846 8843 c-2 -2 -30 -6 -62 -8 -70 -5 -79 -7 -169 -35 -98 -31
-238 -103 -314 -163 -66 -51 -170 -156 -200 -200 -9 -13 -28 -43 -43 -65 -16
-23 -28 -46 -28 -52 0 -5 -4 -10 -10 -10 -5 0 -10 -5 -10 -11 0 -6 -6 -25 -14
-42 -58 -127 -86 -244 -93 -382 -3 -60 -5 -116 -5 -122 1 -7 1 -114 1 -238 0
-124 0 -232 0 -240 0 -33 0 -196 0 -207 -1 -7 -1 -67 0 -133 0 -66 0 -128 0
-137 0 -21 0 -461 0 -483 0 -33 0 -196 0 -207 -1 -7 -1 -67 0 -133 0 -66 0
-128 0 -137 0 -21 0 -461 0 -483 0 -33 0 -196 0 -207 -1 -7 -1 -67 0 -133 0
-66 0 -128 0 -137 0 -21 0 -461 0 -483 0 -33 0 -196 0 -207 -1 -7 -1 -67 0
-133 0 -66 0 -128 0 -137 0 -21 0 -461 0 -483 0 -33 0 -196 0 -207 -1 -7 -1
-67 0 -133 0 -66 0 -128 0 -137 0 -21 0 -461 0 -483 0 -33 0 -196 0 -207 -1
-7 -1 -67 0 -133 0 -66 0 -128 0 -137 0 -10 0 -119 0 -243 0 -124 0 -231 0
-237 -5 -423 12 -738 41 -773 5 -7 8 -14 5 -17 -3 -3 2 -21 10 -41 8 -20 15
-39 15 -42 0 -6 59 -121 89 -172 48 -85 181 -224 276 -289 73 -50 181 -105
255 -129 30 -10 56 -18 57 -17 2 0 17 -4 35 -9 79 -24 303 -33 403 -16 63 11
84 15 93 21 5 3 20 7 34 10 53 9 187 71 263 122 161 107 272 231 358 403 26
50 47 93 47 96 1 8 6 28 18 65 11 34 16 58 30 130 9 46 9 7061 0 7121 -25 170
-108 359 -217 492 -40 49 -142 143 -200 184 -120 87 -307 162 -440 179 -59 7
-219 12 -225 7z"/>
<path d="M8578 8845 c-2 -2 -28 -5 -58 -9 -76 -7 -182 -33 -235 -55 -60 -26
-140 -67 -143 -73 -2 -5 -8 -8 -14 -8 -15 0 -125 -81 -179 -132 -25 -24 -66
-70 -92 -103 -26 -33 -52 -66 -58 -73 -23 -29 -96 -182 -118 -247 -26 -80 -30
-96 -33 -143 -1 -18 -6 -36 -10 -38 -12 -7 -10 -7041 2 -7084 5 -19 12 -51 14
-70 7 -48 12 -66 36 -134 27 -75 99 -216 110 -216 5 0 11 -9 15 -20 15 -47
170 -202 264 -264 99 -66 229 -125 306 -141 11 -3 43 -10 70 -17 30 -7 111
-12 200 -12 123 1 166 5 235 23 47 13 95 25 108 28 12 3 22 9 22 14 0 5 3 8 8
7 17 -5 165 70 212 108 91 74 159 136 180 164 14 18 35 44 48 59 12 14 25 34
28 44 3 9 10 17 15 17 5 0 9 4 9 10 0 5 13 31 28 57 44 75 82 183 109 308 10
51 11 7110 0 7150 -4 17 -9 39 -11 50 -15 103 -115 322 -173 383 -7 7 -13 17
-13 21 0 20 -167 175 -243 225 -109 73 -263 137 -367 153 -14 2 -38 6 -55 9
-36 5 -213 13 -217 9z"/>
</g>
</svg>
